<?xml version="1.0" standalone="no"?>
<!DOCTYPE svg PUBLIC "-//W3C//DTD SVG 20010904//EN"
 "http://www.w3.org/TR/2001/REC-SVG-20010904/DTD/svg10.dtd">
<svg version="1.0" xmlns="http://www.w3.org/2000/svg"
 width="1080.000000pt" height="1081.000000pt" viewBox="0 0 1080.000000 1081.000000"
 preserveAspectRatio="xMidYMid meet">

<g transform="translate(0.000000,1081.000000) scale(0.100000,-0.100000)"
fill="#000000" stroke="none">
<path d="M2698 10803 c1486 -2 3918 -2 5405 0 1486 1 270 2 -2703 2 -2973 0
-4189 -1 -2702 -2z"/>
<path d="M5330 7938 c-130 -187 -324 -512 -480 -801 -30 -56 -57 -96 -64 -93
-104 47 -139 57 -148 44 -86 -130 -270 -484 -332 -638 -21 -52 -41 -99 -46
-103 -4 -5 -44 20 -89 55 -130 100 -121 95 -138 72 -28 -36 -96 -179 -138
-289 -54 -139 -96 -276 -134 -435 -27 -114 -39 -181 -71 -385 -24 -149 -24
-615 -1 -615 3 0 31 80 60 178 94 310 191 581 287 806 52 121 96 222 99 225 3
3 34 -23 68 -57 34 -34 66 -62 70 -62 3 0 14 15 23 33 90 177 479 777 504 777
4 0 9 -90 12 -201 3 -110 10 -205 15 -210 6 -6 18 13 32 48 38 93 354 733 362
733 4 0 20 -39 34 -87 15 -49 38 -125 52 -170 l25 -83 -88 -137 c-48 -76 -96
-149 -106 -162 -10 -13 -18 -30 -18 -37 0 -7 36 -79 81 -160 44 -81 85 -158
90 -171 21 -56 24 -12 8 140 l-16 162 56 60 c32 33 101 107 154 163 l97 104 0
343 c0 189 4 346 8 349 7 4 39 -74 197 -484 l52 -135 -27 -65 c-99 -233 -228
-660 -200 -660 4 0 19 19 33 43 27 45 194 270 262 352 171 207 338 405 341
405 13 0 182 -366 290 -629 l59 -145 6 100 c4 54 7 163 8 242 0 78 4 142 9
142 4 0 29 -17 57 -38 l49 -37 58 -280 c31 -154 62 -309 69 -343 l11 -64 32 6
c107 19 134 19 140 0 3 -11 21 -104 40 -209 31 -170 53 -318 152 -1023 14
-106 24 -195 21 -199 -3 -3 -26 6 -50 21 -55 32 -389 187 -393 183 -3 -3 11
-117 40 -327 16 -114 48 -425 66 -640 6 -74 13 -155 16 -179 l6 -44 -49 7
c-26 4 -100 14 -163 22 -63 8 -116 17 -117 18 -2 2 36 83 83 181 l86 179 -27
120 c-48 219 -130 445 -225 621 l-49 90 27 36 c15 19 66 82 113 140 87 106
130 163 210 279 51 74 149 234 149 244 0 12 -117 181 -195 281 -106 137 -177
217 -330 375 l-130 135 -54 203 c-30 111 -57 202 -60 202 -3 0 -35 -81 -71
-179 l-64 -179 -86 -42 c-137 -67 -277 -147 -404 -232 -65 -44 -124 -77 -131
-74 -7 2 -68 37 -136 76 -141 81 -389 204 -496 245 l-72 28 -89 -81 c-127
-116 -314 -312 -404 -422 -92 -115 -225 -310 -234 -345 -15 -60 187 -354 415
-603 l85 -94 -18 -31 c-157 -266 -239 -472 -285 -710 l-21 -107 105 -210 c58
-115 105 -214 105 -219 0 -6 -17 -13 -37 -17 -21 -4 -105 -22 -187 -40 -83
-19 -153 -31 -157 -27 -4 5 -34 85 -67 178 -162 458 -405 970 -669 1409 -29
50 -52 94 -50 99 4 14 119 -77 188 -150 34 -37 92 -107 127 -156 36 -48 67
-86 69 -83 9 9 -19 162 -44 241 -48 152 -129 284 -229 373 l-56 50 59 31 c32
18 71 42 87 55 24 20 27 26 17 45 -16 28 -106 96 -164 121 -26 12 -75 24 -109
28 l-62 7 -57 94 c-34 57 -66 99 -80 104 -13 6 -73 10 -134 10 -96 0 -120 -4
-185 -28 -41 -15 -102 -42 -135 -59 l-60 -31 160 -3 160 -3 47 -82 c26 -45 45
-83 43 -85 -1 -2 -29 4 -61 12 -154 39 -416 46 -539 13 -45 -12 -54 -19 -98
-83 -81 -117 -151 -265 -172 -363 -7 -33 -4 -31 96 60 182 166 182 165 288
184 51 9 95 14 97 12 2 -2 -26 -22 -62 -46 -134 -88 -237 -208 -316 -366 -73
-145 -107 -286 -115 -474 -7 -146 -18 -144 132 -20 98 81 135 114 279 251 l71
67 6 -93 c4 -50 12 -117 18 -146 14 -71 53 -190 61 -190 19 0 168 191 237 302
20 32 39 58 43 58 4 0 12 -19 19 -42 14 -47 130 -291 154 -323 9 -11 18 -18
21 -15 9 10 65 307 86 463 12 84 22 157 24 162 12 39 291 -705 419 -1120 83
-266 141 -474 134 -481 -3 -3 -30 34 -62 82 -103 158 -248 341 -395 497 -52
56 -57 65 -37 73 24 9 88 -13 151 -51 32 -19 62 -35 67 -35 18 0 -44 139 -90
199 -30 40 -135 111 -164 111 -11 0 -46 -12 -77 -26 l-58 -26 -44 29 c-71 49
-125 65 -229 71 -104 5 -176 -6 -248 -40 l-46 -21 45 -8 c25 -4 78 -13 118
-19 74 -12 197 -65 223 -96 11 -13 9 -14 -17 -7 -56 15 -304 8 -373 -10 -98
-26 -267 -124 -248 -143 3 -3 53 -6 111 -6 58 0 106 -2 106 -4 0 -2 -22 -32
-49 -65 -28 -34 -62 -85 -77 -114 -25 -48 -27 -56 -16 -91 12 -40 100 -184
113 -184 8 0 19 78 19 134 0 67 17 107 67 159 52 53 161 132 170 123 3 -3 -13
-49 -36 -101 -22 -53 -41 -111 -41 -128 0 -44 28 -199 37 -208 37 -34 166
-139 168 -137 1 2 -7 49 -18 105 l-21 102 27 83 c30 89 115 260 133 265 11 4
25 -103 45 -364 9 -115 15 -150 24 -143 40 34 125 298 141 442 4 32 10 61 15
64 30 18 379 -632 353 -655 -5 -5 -49 -24 -99 -44 -204 -82 -280 -116 -292
-133 -7 -10 -11 -19 -10 -21 2 -1 48 4 103 13 895 136 1859 181 2824 134 437
-22 1008 -69 1345 -110 44 -6 91 -10 105 -10 l25 0 -26 25 c-31 32 -153 76
-461 165 -285 83 -272 79 -267 84 5 6 370 -38 539 -64 294 -45 610 -108 868
-171 90 -23 166 -38 169 -35 11 10 -30 47 -79 72 -62 31 -268 116 -338 139
-30 9 -58 20 -62 24 -6 5 -44 218 -174 976 -24 143 -55 320 -68 392 -12 73
-21 135 -19 137 3 2 35 -6 71 -18 l67 -23 81 -214 c186 -493 372 -865 541
-1084 73 -94 100 -122 109 -112 8 8 -88 386 -177 692 -115 393 -410 1289 -433
1312 -1 2 -81 19 -176 38 -95 19 -176 38 -180 42 -4 5 -19 78 -34 163 -45 247
-156 784 -166 793 -4 5 -61 28 -126 51 l-119 43 -84 250 -84 251 -110 58 c-64
35 -112 67 -117 79 -4 11 -17 72 -29 135 -12 63 -26 125 -31 136 -6 16 -47 37
-156 80 l-147 58 -83 -90 c-57 -62 -84 -84 -88 -74 -2 8 -53 160 -111 337 -59
177 -113 327 -119 332 -7 6 -111 49 -232 96 -120 48 -224 89 -231 92 -6 2 -43
-41 -83 -99z m-422 -2214 c104 -68 254 -183 337 -257 l60 -55 -32 -66 c-18
-36 -37 -66 -43 -66 -5 0 -40 20 -76 45 -37 24 -106 64 -153 89 -202 104 -305
105 -547 6 -54 -22 -99 -38 -102 -36 -7 8 181 196 258 259 80 65 187 137 203
137 5 0 48 -25 95 -56z m1333 -19 c132 -107 329 -307 329 -335 0 -5 -51 14
-112 42 -155 69 -218 88 -298 88 -101 0 -220 -49 -386 -160 l-89 -58 -34 68
c-34 68 -35 69 -16 90 49 55 487 319 529 320 5 0 39 -25 77 -55z m-1531 -418
c20 -42 68 -57 106 -32 14 9 29 26 31 36 3 12 14 19 29 19 32 0 37 -14 19 -50
-43 -83 -173 -95 -226 -20 -28 40 -33 68 -12 73 34 9 38 7 53 -26z m1524 27
c20 -8 20 -27 1 -64 -20 -39 -63 -60 -120 -60 -37 0 -51 6 -80 33 -44 40 -51
81 -15 85 18 2 28 -4 35 -20 6 -13 23 -29 39 -37 25 -12 33 -11 62 3 20 9 36
25 40 41 6 26 12 29 38 19z m301 -130 c-62 -99 -154 -196 -210 -223 -110 -52
-229 -13 -372 123 -46 43 -82 80 -81 81 2 2 37 -8 78 -23 104 -35 263 -37 364
-4 68 23 172 72 231 110 17 11 32 18 34 16 2 -2 -18 -38 -44 -80z m-2080 3
c39 -19 97 -43 130 -53 85 -25 225 -22 343 6 51 12 95 20 98 17 3 -2 -34 -41
-82 -86 -147 -137 -267 -177 -370 -124 -54 29 -138 121 -196 216 -55 89 -59
106 -20 79 15 -11 59 -36 97 -55z m-1490 -103 l55 -37 0 -81 c0 -86 -16 -291
-26 -339 -8 -37 -15 -28 -48 60 -22 58 -27 86 -25 148 1 41 0 78 -3 80 -14 14
-149 -168 -206 -277 -23 -43 -43 -74 -46 -70 -14 23 43 220 95 326 21 44 37
81 35 84 -8 8 -81 -20 -163 -63 -104 -55 -219 -140 -305 -227 -38 -37 -71 -68
-73 -68 -7 0 26 79 53 128 69 123 241 258 406 319 49 18 166 52 184 52 7 1 37
-15 67 -35z m2921 -201 c136 -110 130 -97 94 -183 -16 -40 -44 -95 -60 -122
-17 -26 -30 -52 -30 -56 0 -4 14 -16 30 -25 138 -82 318 -334 379 -531 38
-124 41 -123 -114 -46 -260 131 -433 179 -675 187 -129 4 -175 2 -279 -16
-141 -24 -136 -26 -146 54 -13 90 -19 88 -72 -19 l-48 -99 -90 -32 c-49 -17
-130 -49 -178 -70 -48 -21 -90 -35 -92 -33 -10 9 37 144 79 228 71 142 173
271 285 362 l45 36 -32 69 c-88 190 -87 193 42 296 57 45 122 92 144 105 l41
23 120 -101 c66 -55 124 -100 128 -100 5 0 61 47 126 105 l119 105 46 -32 c26
-17 88 -64 138 -105z m-163 -1032 c163 -43 344 -134 452 -225 l36 -31 -97
-158 c-53 -87 -100 -155 -104 -150 -5 4 -41 69 -81 143 -82 152 -77 145 -85
138 -4 -5 -39 -124 -74 -255 l-11 -43 -418 0 c-386 0 -419 1 -433 18 -15 17
-129 210 -186 314 -36 64 -37 61 53 105 141 70 314 128 470 157 118 22 374 15
478 -13z m1698 -366 c100 -154 184 -286 187 -294 4 -11 0 -13 -19 -8 -13 4
-80 21 -149 38 -69 17 -126 32 -128 33 -3 4 -14 71 -51 302 -31 193 -35 221
-26 213 2 -3 86 -130 186 -284z"/>
<path d="M5123 4739 c-40 -27 -73 -54 -73 -59 0 -25 66 -140 80 -140 8 0 56 7
105 15 50 8 98 15 107 15 12 0 28 -35 63 -140 26 -77 48 -140 50 -140 1 0 24
62 51 138 26 75 49 139 51 141 1 2 53 -4 113 -14 61 -9 113 -16 114 -14 2 2
18 34 34 72 35 77 40 69 -67 132 l-74 43 -101 -90 c-56 -49 -106 -92 -112 -95
-7 -2 -65 39 -130 91 -66 52 -123 95 -129 95 -5 0 -43 -22 -82 -50z"/>
<path d="M3755 6800 c-45 -7 -88 -27 -160 -76 l-50 -34 -42 21 c-36 17 -52 19
-114 13 -66 -6 -71 -8 -53 -21 10 -8 39 -24 64 -36 l45 -22 -105 -6 c-154 -8
-200 -36 -265 -167 -14 -29 -25 -57 -23 -63 2 -6 48 21 103 60 l99 71 154 0
154 0 46 -40 c52 -46 67 -47 162 -3 l55 25 -62 17 c-56 16 -120 48 -111 56 1
1 34 26 71 54 l68 52 92 -11 c51 -6 124 -10 162 -8 l70 3 -105 52 c-110 55
-185 73 -255 63z"/>
<path d="M3925 4983 c12 -80 45 -404 45 -436 0 -26 -93 -307 -148 -449 -10
-24 3 -54 121 -296 87 -178 134 -263 139 -253 4 9 7 92 7 184 l1 169 -56 93
-56 94 119 208 c65 114 117 213 117 220 -2 16 -274 492 -285 499 -6 3 -7 -10
-4 -33z"/>
</g>
</svg>
